:FULLY-SPECIFIED
:FORCE-ALL-JOINTS-BE-3DOF
:DEGREES
645
root 5.56548 16.3 -2.48535 13.0976 13.2815 -0.071578
lfemur -14.6915 24.6974 -29.0736
ltibia 36.1499 0 0
lfoot -37.8732 19.5082 0
ltoes 20.2847 0 0
rfemur -60.8012 -27.6508 35.2084
rtibia 70.1943 0 0
rfoot -4.32338 1.49656 0
rtoes 2.37957 0 0
lowerback 0.747342 -4.45688 -5.7936
upperback -1.25702 -6.01722 -0.180334
thorax -1.14083 -2.94871 3.1009
lowerneck -9.76854 -7.00902 -0.405877
upperneck 5.99046 -9.74117 5.27673
head 3.81992 -4.58639 1.14081
lclavicle 8.64424e-14 -1.29162e-14 0
lhumerus -36.3864 -64.4911 117.338
lradius 70.3069 0 0
lwrist 23.9985 0 0
lhand -6.02701 2.41056 0
lfingers 7.12502 0 0
lthumb 19.8038 31.3884 0
rclavicle 8.64424e-14 -1.29162e-14 0
rhumerus -27.468 -6.80097 -71.9119
rradius 72.8652 0 0
rwrist -29.2731 0 0
rhand -29.3992 -43.9887 0
rfingers 7.12502 0 0
rthumb -2.73721 -793.951 0
646
root 5.56129 16.2832 -2.43772 13.4622 12.2345 0.124505
lfemur -14.6213 24.6569 -29.2511
ltibia 36.0995 0 0
lfoot -37.9504 19.2481 0
ltoes 20.0199 0 0
rfemur -61.0523 -27.9703 35.5622
rtibia 70.1834 0 0
rfoot -4.84666 0.544302 0
rtoes 2.80485 0 0
lowerback 0.671825 -4.48231 -5.85741
upperback -1.28405 -6.04953 -0.231868
thorax -1.12262 -2.96439 3.07831
lowerneck -9.78309 -6.96813 -0.43061
upperneck 5.66465 -9.67605 5.36643
head 3.73185 -4.55893 1.18577
lclavicle 8.5749e-14 -1.38277e-14 0
lhumerus -36.8706 -65.1587 118.083
lradius 70.6706 0 0
lwrist 24.1261 0 0
lhand -5.84441 2.52706 0
lfingers 7.12502 0 0
lthumb 19.9794 31.4884 0
rclavicle 8.5749e-14 -1.38277e-14 0
rhumerus -29.1137 -7.09643 -71.9449
rradius 71.5419 0 0
rwrist -28.2579 0 0
rhand -29.398 -44.6001 0
rfingers 7.12502 0 0
rthumb -2.73604 -794.562 0
647
root 5.5571 16.2664 -2.39008 13.8269 11.1874 0.320588
lfemur -14.5511 24.6164 -29.4287
ltibia 36.049 0 0
lfoot -38.0277 18.988 0
ltoes 19.755 0 0
rfemur -61.3034 -28.2899 35.916
rtibia 70.1725 0 0
rfoot -5.36995 -0.407954 0
rtoes 3.23013 0 0
lowerback 0.596307 -4.50775 -5.92123
upperback -1.31107 -6.08184 -0.283402
thorax -1.10442 -2.98006 3.05573
lowerneck -9.79764 -6.92724 -0.455342
upperneck 5.33884 -9.61092 5.45613
head 3.64377 -4.53147 1.23073
lclavicle 8.50557e-14 -1.47392e-14 0
lhumerus -37.3549 -65.8264 118.827
lradius 71.0342 0 0
lwrist 24.2537 0 0
lhand -5.66182 2.64356 0
lfingers 7.12502 0 0
lthumb 20.1551 31.5883 0
rclavicle 8.50557e-14 -1.47392e-14 0
rhumerus -30.7593 -7.39188 -71.9778
rradius 70.2186 0 0
rwrist -27.2428 0 0
rhand -29.3967 -45.2115 0
rfingers 7.12502 0 0
rthumb -2.73486 -795.174 0
648
root 5.55291 16.2496 -2.34244 14.1915 10.1403 0.516671
lfemur -14.4809 24.576 -29.6062
ltibia 35.9986 0 0
lfoot -38.1049 18.7279 0
ltoes 19.4902 0 0
rfemur -61.5546 -28.6095 36.2698
rtibia 70.1616 0 0
rfoot -5.89323 -1.36021 0
rtoes 3.65541 0 0
lowerback 0.52079 -4.53318 -5.98505
upperback -1.3381 -6.11415 -0.334937
thorax -1.08621 -2.99573 3.03314
lowerneck -9.81218 -6.88636 -0.480075
upperneck 5.01303 -9.5458 5.54584
head 3.5557 -4.50401 1.27569
lclavicle 8.43624e-14 -1.56507e-14 0
lhumerus -37.8392 -66.494 119.572
lradius 71.3979 0 0
lwrist 24.3813 0 0
lhand -5.47922 2.76005 0
lfingers 7.12502 0 0
lthumb 20.3307 31.6882 0
rclavicle 8.43624e-14 -1.56507e-14 0
rhumerus -32.405 -7.68733 -72.0108
rradius 68.8952 0 0
rwrist -26.2276 0 0
rhand -29.3955 -45.8229 0
rfingers 7.12502 0 0
rthumb -2.73369 -795.785 0
649
root 5.54872 16.2328 -2.2948 14.5561 9.09329 0.712755
lfemur -14.4107 24.5355 -29.7838
ltibia 35.9482 0 0
lfoot -38.1822 18.4678 0
ltoes 19.2253 0 0
rfemur -61.8057 -28.929 36.6237
rtibia 70.1507 0 0
rfoot -6.41652 -2.31247 0
rtoes 4.08069 0 0
lowerback 0.445272 -4.55862 -6.04886
upperback -1.36512 -6.14645 -0.386471
thorax -1.068 -3.01141 3.01055
lowerneck -9.82673 -6.84547 -0.504807
upperneck 4.68721 -9.48067 5.63554
head 3.46762 -4.47656 1.32065
lclavicle 8.36691e-14 -1.65622e-14 0
lhumerus -38.3234 -67.1616 120.317
lradius 71.7616 0 0
lwrist 24.5089 0 0
lhand -5.29662 2.87655 0
lfingers 7.12502 0 0
lthumb 20.5064 31.7882 0
rclavicle 8.36691e-14 -1.65622e-14 0
rhumerus -34.0507 -7.98278 -72.0438
rradius 67.5719 0 0
rwrist -25.2124 0 0
rhand -29.3943 -46.4343 0
rfingers 7.12502 0 0
rthumb -2.73252 -796.397 0
650
root 5.54453 16.216 -2.24716 14.9207 8.04624 0.908838
lfemur -14.3405 24.495 -29.9613
ltibia 35.8978 0 0
lfoot -38.2594 18.2077 0
ltoes 18.9605 0 0
rfemur -62.0568 -29.2486 36.9775
rtibia 70.1398 0 0
rfoot -6.9398 -3.26472 0
rtoes 4.50597 0 0
lowerback 0.369755 -4.58405 -6.11268
upperback -1.39215 -6.17876 -0.438005
thorax -1.04979 -3.02708 2.98796
lowerneck -9.84128 -6.80458 -0.52954
upperneck 4.3614 -9.41555 5.72524
head 3.37955 -4.4491 1.36561
lclavicle 8.29757e-14 -1.74737e-14 0
lhumerus -38.8077 -67.8293 121.061
lradius 72.1253 0 0
lwrist 24.6366 0 0
lhand -5.11402 2.99305 0
lfingers 7.12502 0 0
lthumb 20.682 31.8881 0
rclavicle 8.29757e-14 -1.74737e-14 0
rhumerus -35.6964 -8.27823 -72.0767
rradius 66.2486 0 0
rwrist -24.1972 0 0
rhand -29.3931 -47.0457 0
rfingers 7.12502 0 0
rthumb -2.73135 -797.008 0
651
root 5.54034 16.1992 -2.19953 15.2854 6.99918 1.10492
lfemur -14.2702 24.4545 -30.1389
ltibia 35.8474 0 0
lfoot -38.3367 17.9475 0
ltoes 18.6956 0 0
rfemur -62.308 -29.5682 37.3313
rtibia 70.1289 0 0
rfoot -7.46309 -4.21698 0
rtoes 4.93125 0 0
lowerback 0.294237 -4.60949 -6.17649
upperback -1.41917 -6.21107 -0.489539
thorax -1.03159 -3.04275 2.96537
lowerneck -9.85583 -6.76369 -0.554272
upperneck 4.03559 -9.35042 5.81495
head 3.29147 -4.42164 1.41057
lclavicle 8.22824e-14 -1.83852e-14 0
lhumerus -39.292 -68.4969 121.806
lradius 72.489 0 0
lwrist 24.7642 0 0
lhand -4.93142 3.10955 0
lfingers 7.12502 0 0
lthumb 20.8577 31.9881 0
rclavicle 8.22824e-14 -1.83852e-14 0
rhumerus -37.342 -8.57369 -72.1097
rradius 64.9252 0 0
rwrist -23.1821 0 0
rhand -29.3919 -47.6571 0
rfingers 7.12502 0 0
rthumb -2.73017 -797.62 0
652
root 5.53616 16.1824 -2.15189 15.65 5.95213 1.301
lfemur -14.2 24.4141 -30.3164
ltibia 35.797 0 0
lfoot -38.4139 17.6874 0
ltoes 18.4308 0 0
rfemur -62.5591 -29.8877 37.6851
rtibia 70.118 0 0
rfoot -7.98637 -5.16924 0
rtoes 5.35654 0 0
lowerback 0.21872 -4.63492 -6.24031
upperback -1.4462 -6.24338 -0.541074
thorax -1.01338 -3.05843 2.94278
lowerneck -9.87037 -6.72281 -0.579005
upperneck 3.70978 -9.2853 5.90465
head 3.2034 -4.39418 1.45553
lclavicle 8.15891e-14 -1.92967e-14 0
lhumerus -39.7762 -69.1646 122.551
lradius 72.8527 0 0
lwrist 24.8918 0 0
lhand -4.74882 3.22605 0
lfingers 7.12502 0 0
lthumb 21.0333 32.088 0
rclavicle 8.15891e-14 -1.92967e-14 0
rhumerus -38.9877 -8.86914 -72.1427
rradius 63.6019 0 0
rwrist -22.1669 0 0
rhand -29.3907 -48.2684 0
rfingers 7.12502 0 0
rthumb -2.729 -798.231 0
653
root 5.53197 16.1656 -2.10425 16.0146 4.90507 1.49709
lfemur -14.1298 24.3736 -30.4939
ltibia 35.7466 0 0
lfoot -38.4912 17.4273 0
ltoes 18.166 0 0
rfemur -62.8103 -30.2073 38.0389
rtibia 70.1072 0 0
rfoot -8.50966 -6.12149 0
rtoes 5.78182 0 0
lowerback 0.143202 -4.66036 -6.30413
upperback -1.47322 -6.27569 -0.592608
thorax -0.995171 -3.0741 2.92019
lowerneck -9.88492 -6.68192 -0.603738
upperneck 3.38397 -9.22017 5.99436
head 3.11532 -4.36672 1.50048
lclavicle 8.08957e-14 -2.02082e-14 0
lhumerus -40.2605 -69.8322 123.295
lradius 73.2164 0 0
lwrist 25.0194 0 0
lhand -4.56622 3.34255 0
lfingers 7.12502 0 0
lthumb 21.209 32.1879 0
rclavicle 8.08957e-14 -2.02082e-14 0
rhumerus -40.6334 -9.16459 -72.1756
rradius 62.2785 0 0
rwrist -21.1517 0 0
rhand -29.3895 -48.8798 0
rfingers 7.12502 0 0
rthumb -2.72783 -798.842 0
654
root 5.52778 16.1488 -2.05661 16.3792 3.85802 1.69317
lfemur -14.0596 24.3331 -30.6715
ltibia 35.6961 0 0
lfoot -38.5684 17.1672 0
ltoes 17.9011 0 0
rfemur -63.0614 -30.5269 38.3927
rtibia 70.0963 0 0
rfoot -9.03294 -7.07375 0
rtoes 6.2071 0 0
lowerback 0.0676845 -4.68579 -6.36794
upperback -1.50025 -6.308 -0.644142
thorax -0.976964 -3.08977 2.89761
lowerneck -9.89947 -6.64103 -0.62847
upperneck 3.05816 -9.15505 6.08406
head 3.02725 -4.33926 1.54544
lclavicle 8.02024e-14 -2.11197e-14 0
lhumerus -40.7448 -70.4999 124.04
lradius 73.58 0 0
lwrist 25.147 0 0
lhand -4.38362 3.45905 0
lfingers 7.12502 0 0
lthumb 21.3846 32.2879 0
rclavicle 8.02024e-14 -2.11197e-14 0
rhumerus -42.2791 -9.46004 -72.2086
rradius 60.9552 0 0
rwrist -20.1365 0 0
rhand -29.3882 -49.4912 0
rfingers 7.12502 0 0
rthumb -2.72666 -799.454 0
655
root 5.52359 16.132 -2.00898 16.7439 2.81096 1.88925
lfemur -13.9894 24.2926 -30.849
ltibia 35.6457 0 0
lfoot -38.6457 16.9071 0
ltoes 17.6363 0 0
rfemur -63.3125 -30.8465 38.7466
rtibia 70.0854 0 0
rfoot -9.55623 -8.02601 0
rtoes 6.63238 0 0
lowerback -0.00783298 -4.71123 -6.43176
upperback -1.52727 -6.3403 -0.695676
thorax -0.958756 -3.10544 2.87502
lowerneck -9.91402 -6.60014 -0.653203
upperneck 2.73234 -9.08992 6.17376
head 2.93917 -4.31181 1.5904
lclavicle 7.95091e-14 -2.20312e-14 0
lhumerus -41.2291 -71.1675 124.785
lradius 73.9437 0 0
lwrist 25.2747 0 0
lhand -4.20102 3.57555 0
lfingers 7.12502 0 0
lthumb 21.5603 32.3878 0
rclavicle 7.95091e-14 -2.20312e-14 0
rhumerus -43.9247 -9.7555 -72.2416
rradius 59.6319 0 0
rwrist -19.1214 0 0
rhand -29.387 -50.1026 0
rfingers 7.12502 0 0
rthumb -2.72548 -800.065 0
656
root 5.5194 16.1152 -1.96134 17.1085 1.76391 2.08534
lfemur -13.9192 24.2522 -31.0266
ltibia 35.5953 0 0
lfoot -38.7229 16.647 0
ltoes 17.3714 0 0
rfemur -63.5637 -31.166 39.1004
rtibia 70.0745 0 0
rfoot -10.0795 -8.97826 0
rtoes 7.05766 0 0
lowerback -0.0833505 -4.73666 -6.49557
upperback -1.5543 -6.37261 -0.747211
thorax -0.940549 -3.12112 2.85243
lowerneck -9.92856 -6.55926 -0.677935
upperneck 2.40653 -9.0248 6.26347
head 2.8511 -4.28435 1.63536
lclavicle 7.88157e-14 -2.29427e-14 0
lhumerus -41.7133 -71.8352 125.529
lradius 74.3074 0 0
lwrist 25.4023 0 0
lhand -4.01842 3.69205 0
lfingers 7.12502 0 0
lthumb 21.7359 32.4878 0
rclavicle 7.88157e-14 -2.29427e-14 0
rhumerus -45.5704 -10.0509 -72.2745
rradius 58.3085 0 0
rwrist -18.1062 0 0
rhand -29.3858 -50.714 0
rfingers 7.12502 0 0
rthumb -2.72431 -800.677 0
657
root 5.51521 16.0984 -1.9137 17.4731 0.716853 2.28142
lfemur -13.849 24.2117 -31.2041
ltibia 35.5449 0 0
lfoot -38.8002 16.3869 0
ltoes 17.1066 0 0
rfemur -63.8148 -31.4856 39.4542
rtibia 70.0636 0 0
rfoot -10.6028 -9.93052 0
rtoes 7.48294 0 0
lowerback -0.158868 -4.7621 -6.55939
upperback -1.58132 -6.40492 -0.798745
thorax -0.922341 -3.13679 2.82984
lowerneck -9.94311 -6.51837 -0.702668
upperneck 2.08072 -8.95967 6.35317
head 2.76302 -4.25689 1.68032
lclavicle 7.81224e-14 -2.38542e-14 0
lhumerus -42.1976 -72.5028 126.274
lradius 74.6711 0 0
lwrist 25.5299 0 0
lhand -3.83582 3.80855 0
lfingers 7.12502 0 0
lthumb 21.9116 32.5877 0
rclavicle 7.81224e-14 -2.38542e-14 0
rhumerus -47.2161 -10.3464 -72.3075
rradius 56.9852 0 0
rwrist -17.091 0 0
rhand -29.3846 -51.3254 0
rfingers 7.12502 0 0
rthumb -2.72314 -801.288 0
